<?xml version="1.0" standalone="no"?><!DOCTYPE svg PUBLIC "-//W3C//DTD SVG 1.1//EN" "http://www.w3.org/Graphics/SVG/1.1/DTD/svg11.dtd"><svg t="1605086607800" class="icon" viewBox="0 0 1024 1024" version="1.1" xmlns="http://www.w3.org/2000/svg" p-id="8352" width="128" height="128" xmlns:xlink="http://www.w3.org/1999/xlink"><defs><style type="text/css"></style></defs><path d="M192 137.6H115.2c-16 0-25.6-12.8-25.6-25.6s12.8-25.6 25.6-25.6h105.6c16 0 25.6 12.8 25.6 28.8v585.6c0 16-12.8 28.8-25.6 28.8s-25.6-12.8-25.6-28.8L192 137.6c3.2 0 0 0 0 0z m108.8 720c0 44.8-35.2 80-80 80s-80-35.2-80-80 35.2-80 80-80 80 38.4 80 80z m-108.8 3.2c0 16 12.8 25.6 25.6 25.6s25.6-12.8 25.6-25.6-9.6-28.8-22.4-28.8c-16 0-28.8 12.8-28.8 28.8zM940.8 259.2v406.4c0 64-51.2 115.2-115.2 115.2H416c-64 0-115.2-51.2-115.2-115.2V259.2c0-64 51.2-115.2 115.2-115.2h409.6c64 0 115.2 51.2 115.2 115.2z m-28.8 627.2H384c-16 0-28.8-12.8-28.8-25.6s12.8-28.8 28.8-28.8h531.2c6.4 0 16 3.2 19.2 6.4 6.4 6.4 9.6 12.8 9.6 19.2-3.2 16-16 28.8-32 28.8zM566.4 198.4v252.8H672V198.4h-105.6z" p-id="8353"></path></svg>