<?xml version="1.0" standalone="no"?><!DOCTYPE svg PUBLIC "-//W3C//DTD SVG 1.1//EN" "http://www.w3.org/Graphics/SVG/1.1/DTD/svg11.dtd"><svg t="1605086436335" class="icon" viewBox="0 0 1024 1024" version="1.1" xmlns="http://www.w3.org/2000/svg" p-id="1621" width="64" height="64" xmlns:xlink="http://www.w3.org/1999/xlink"><defs><style type="text/css"></style></defs><path d="M0 588.8c0 70.6048 137.3952 128 307.2 128 169.6 0 307.2-57.1904 307.2-128 0-70.6048-137.6-128-307.2-128S0 518.1952 0 588.8z" p-id="1622"></path><path d="M307.2 765.3888C43.5968 765.3888 0 652.8 0 652.8v102.4S56.3968 870.4 307.2 870.4s307.2-102.4 307.2-102.4v-112.5888c0-2.6112-43.5968 109.9776-307.2 109.9776zM409.6 128c0 70.6048 137.3952 128 306.9952 128C886.4 256 1024 198.8096 1024 128c0-70.6048-137.6-128-307.2-128S409.6 57.3952 409.6 128z" p-id="1623"></path><path d="M716.8 316.0064C453.1968 316.0064 409.6 204.8 409.6 204.8v101.12s56.3968 113.792 307.2 113.792 307.2-101.12 307.2-101.12V207.36c0-2.56-41.0112 108.6464-307.2 108.6464zM307.2 920.32c-263.6032 0-307.2-111.2064-307.2-111.2064v101.12S56.3968 1024 307.2 1024s307.2-101.12 307.2-101.12v-111.232c0-2.56-43.5968 108.6464-307.2 108.6464z" p-id="1624"></path><path d="M716.8 465.664C453.1968 465.664 409.6 358.4 409.6 358.4v73.1648h12.8c128 0 233.0112 58.4704 235.5968 129.152 17.9968 2.4832 38.4 2.4832 58.8032 2.4832 250.8032 0 307.2-97.536 307.2-97.536V358.4s-41.0112 107.264-307.2 107.264zM719.0016 619.264c-17.8688 0-35.5328 0-53.4016-2.4832v97.536c15.2832 0 32.9728 2.4832 53.4016 2.4832C968.0128 716.8 1024 619.264 1024 619.264V512s-40.704 107.264-304.9984 107.264zM719.0016 772.864c-17.8688 0-35.5328 0-53.4016-2.4832v97.536c15.2832 0 32.9728 2.4832 53.4016 2.4832C968.0128 870.4 1024 772.864 1024 772.864V665.6s-40.704 107.264-304.9984 107.264z" p-id="1625"></path></svg>